<svg width="88" height="89" viewBox="0 0 88 89" fill="none" xmlns="http://www.w3.org/2000/svg">
<path d="M8.23896 0.5C7.50944 0.5 6.8098 0.809047 6.29396 1.35915C5.77811 1.90926 5.48831 2.65536 5.48831 3.43333C5.48831 4.2113 5.77811 4.95741 6.29396 5.50751C6.8098 6.05762 7.50944 6.36667 8.23896 6.36667H12.3649L0.410602 36.9613C0.114528 37.7124 -0.0243984 38.5232 0.00350626 39.3373C0.177403 43.877 1.9908 48.169 5.06428 51.3155C8.13777 54.4619 12.2332 56.219 16.4937 56.219C20.7542 56.219 24.8496 54.4619 27.9231 51.3155C30.9965 48.169 32.8099 43.877 32.9838 39.3373C33.01 38.5228 32.8692 37.7119 32.5712 36.9613L20.6169 6.36667H41.2468V70.9H19.2416C17.053 70.9 14.9541 71.8271 13.4066 73.4775C11.859 75.1278 10.9896 77.3661 10.9896 79.7C10.9896 82.0339 11.859 84.2722 13.4066 85.9225C14.9541 87.5729 17.053 88.5 19.2416 88.5H68.7533C70.9419 88.5 73.0408 87.5729 74.5883 85.9225C76.1359 84.2722 77.0053 82.0339 77.0053 79.7C77.0053 77.3661 76.1359 75.1278 74.5883 73.4775C73.0408 71.8271 70.9419 70.9 68.7533 70.9H46.7481V6.36667H67.378L55.4237 36.9613C55.1274 37.7123 54.9885 38.5232 55.0166 39.3373C55.1905 43.877 57.0039 48.169 60.0773 51.3155C63.1508 54.4619 67.2462 56.219 71.5067 56.219C75.7672 56.219 79.8626 54.4619 82.9361 51.3155C86.0096 48.169 87.823 43.877 87.9969 39.3373C88.0232 38.5227 87.8824 37.7118 87.5843 36.9613L75.63 6.36667H79.7559C80.4855 6.36667 81.1851 6.05762 81.7009 5.50751C82.2168 4.95741 82.5066 4.2113 82.5066 3.43333C82.5066 2.65536 82.2168 1.90926 81.7009 1.35915C81.1851 0.809047 80.4855 0.5 79.7559 0.5H8.23896ZM16.4909 11.06L26.1182 35.7H6.86363L16.4909 11.06ZM81.1313 35.7H61.8767L71.504 11.06L81.1313 35.7Z" fill="black"/>
</svg>
