<svg width="88" height="88" viewBox="0 0 88 88" fill="none" xmlns="http://www.w3.org/2000/svg">
<path d="M9.8272 88C3.36139 88 0.765262 77.6072 0.226444 73.4677C-0.353632 69.4488 0.184961 65.3632 1.79391 61.5776C2.50107 59.7762 3.71742 58.1712 5.32341 56.9204C6.92941 55.6696 8.86978 54.816 10.9538 54.4435C16.6849 53.5628 20.7505 56.6454 25.9428 57.7023C26.9181 57.9837 27.9579 58.0331 28.9608 57.8456C29.9637 57.6581 30.8954 57.2401 31.6651 56.6324C32.4348 56.0247 33.0161 55.2481 33.3525 54.3782C33.6888 53.5084 33.7687 52.575 33.5842 51.6692C31.4289 44.0947 16.0971 43.9626 9.8272 43.9626C9.8272 35.7716 19.8198 34.7148 26.9714 35.3313C31.2141 35.6997 35.3916 36.5277 39.4132 37.7974C41.8624 38.546 44.7034 40.4396 47.3975 40.2635C51.4632 39.9552 52.2959 36.168 50.5325 33.3936C46.2709 26.8761 34.172 26.3476 26.9714 26.3476C26.9714 17.5402 35.4456 15.8667 43.5768 17.1879C47.7754 17.9302 51.8671 19.0973 55.7737 20.6668C58.2719 21.6356 61.2598 23.4852 64.0029 22.6485C71.0565 20.7109 63.709 13.9291 60.5741 12.2997C58.3738 11.2082 56.0395 10.351 53.6184 9.74555C50.9733 9.04095 47.7404 9.30518 50.1406 6.53082C53.8937 3.55396 58.5502 1.65251 63.5131 1.07018C72.771 -0.867463 85.5557 -1.21976 87.8089 9.26114C88.5598 14.7947 87.0828 20.387 83.6453 25.0265C74.5198 39.0597 63.2223 51.8557 50.0916 63.0308C43.1368 69.4403 35.5999 75.3176 27.5592 80.6017C22.6609 83.7724 16.1951 88 9.8272 88Z" fill="black"/>
</svg>
