<svg width="60" height="75" viewBox="0 0 60 75" fill="none" xmlns="http://www.w3.org/2000/svg">
<path d="M59.3332 0.643311H0.666504V7.97664L21.9698 23.9633C15.5045 26.0952 10.1503 30.707 7.08377 36.7849C4.01728 42.8629 3.48953 49.9097 5.6165 56.3767C6.6688 59.5802 8.34238 62.5449 10.5415 65.101C12.7406 67.6572 15.4221 69.7547 18.4326 71.2736C21.4431 72.7924 24.7236 73.7029 28.0862 73.9528C31.4489 74.2027 34.8279 73.7872 38.0298 72.73C43.1649 71.0422 47.6361 67.7762 50.8058 63.3978C53.9756 59.0194 55.6821 53.752 55.6821 48.3466C55.6821 42.9413 53.9756 37.6739 50.8058 33.2955C47.6361 28.9171 43.1649 25.6511 38.0298 23.9633L59.3332 7.97664V0.643311ZM40.7798 64.81L29.9998 58.5033L19.2198 64.81L22.0798 52.6L12.5832 44.3867L25.0865 43.3233L29.9998 31.81L34.9132 43.3233L47.4165 44.3867L37.9198 52.6L40.7798 64.81Z" fill="black"/>
</svg>
