<svg width="74" height="74" viewBox="0 0 74 74" fill="none" xmlns="http://www.w3.org/2000/svg">
<path d="M36.9999 0.666748C32.1848 0.666748 27.4168 1.61516 22.9682 3.45783C18.5196 5.3005 14.4775 8.00135 11.0727 11.4062C4.19634 18.2825 0.333252 27.6088 0.333252 37.3334C0.333252 47.058 4.19634 56.3843 11.0727 63.2607C14.4775 66.6655 18.5196 69.3663 22.9682 71.209C27.4168 73.0517 32.1848 74.0001 36.9999 74.0001C46.7245 74.0001 56.0508 70.137 62.9272 63.2607C69.8035 56.3843 73.6666 47.058 73.6666 37.3334C73.6666 33.0801 72.8966 28.8634 71.4299 24.9034L65.5633 30.7701C66.0766 32.9334 66.3333 35.1334 66.3333 37.3334C66.3333 45.1131 63.2428 52.5742 57.7417 58.0752C52.2407 63.5763 44.7796 66.6667 36.9999 66.6667C29.2202 66.6667 21.7592 63.5763 16.2581 58.0752C10.7571 52.5742 7.66659 45.1131 7.66659 37.3334C7.66659 29.5537 10.7571 22.0927 16.2581 16.5916C21.7592 11.0905 29.2202 8.00008 36.9999 8.00008C39.1999 8.00008 41.3999 8.25675 43.5633 8.77008L49.4666 2.86675C45.4699 1.43675 41.2533 0.666748 36.9999 0.666748ZM62.6666 0.666748L47.9999 15.3334V20.8334L38.6499 30.1834C38.0999 30.0001 37.5499 30.0001 36.9999 30.0001C35.055 30.0001 33.1897 30.7727 31.8145 32.148C30.4392 33.5232 29.6666 35.3885 29.6666 37.3334C29.6666 39.2783 30.4392 41.1436 31.8145 42.5189C33.1897 43.8941 35.055 44.6667 36.9999 44.6667C38.9448 44.6667 40.8101 43.8941 42.1854 42.5189C43.5606 41.1436 44.3333 39.2783 44.3333 37.3334C44.3333 36.7834 44.3333 36.2334 44.1499 35.6834L53.4999 26.3334H58.9999L73.6666 11.6667H62.6666V0.666748ZM36.9999 15.3334C31.1652 15.3334 25.5694 17.6513 21.4436 21.7771C17.3178 25.9029 14.9999 31.4987 14.9999 37.3334C14.9999 43.1682 17.3178 48.764 21.4436 52.8898C25.5694 57.0156 31.1652 59.3334 36.9999 59.3334C42.8347 59.3334 48.4305 57.0156 52.5563 52.8898C56.6821 48.764 58.9999 43.1682 58.9999 37.3334H51.6666C51.6666 41.2233 50.1214 44.9538 47.3708 47.7043C44.6203 50.4548 40.8898 52.0001 36.9999 52.0001C33.1101 52.0001 29.3796 50.4548 26.629 47.7043C23.8785 44.9538 22.3333 41.2233 22.3333 37.3334C22.3333 33.4436 23.8785 29.713 26.629 26.9625C29.3796 24.212 33.1101 22.6667 36.9999 22.6667V15.3334Z" fill="black"/>
</svg>
