<svg width="71" height="56" viewBox="0 0 71 56" fill="none" xmlns="http://www.w3.org/2000/svg">
<path d="M25.2188 39.5208C26.2882 38.4514 27.4918 37.5763 28.8296 36.8958C30.1654 36.2152 31.5868 35.7534 33.0938 35.5104C32.8507 36.434 32.6563 37.3576 32.5104 38.2812C32.3646 39.2048 32.2917 40.1527 32.2917 41.125C32.2917 42.2916 32.3772 43.434 32.5483 44.552C32.7175 45.6701 32.9965 46.7395 33.3854 47.7604L25.2188 39.5208ZM19.0208 33.3958L12.8958 27.125C15.9097 24.1111 19.3611 21.802 23.25 20.1979C27.1389 18.5937 31.2222 17.7916 35.5 17.7916C37.8819 17.7916 40.2153 18.0463 42.5 18.5558C44.7847 19.0672 46.9722 19.809 49.0625 20.7812C46.9236 21.1701 44.9432 21.875 43.1213 22.8958C41.2974 23.9166 39.6562 25.1805 38.1979 26.6875C37.7604 26.6388 37.3113 26.6019 36.8504 26.5766C36.3876 26.5533 35.9375 26.5416 35.5 26.5416C32.3889 26.5416 29.4119 27.1376 26.5692 28.3295C23.7244 29.5195 21.2083 31.2083 19.0208 33.3958ZM6.625 21L0.5 14.875C5.11806 10.1597 10.4526 6.54982 16.5037 4.04538C22.5568 1.54288 28.8889 0.291626 35.5 0.291626C42.1111 0.291626 48.4422 1.54288 54.4933 4.04538C60.5464 6.54982 65.8819 10.1597 70.5 14.875L64.375 21C60.5347 17.1597 56.1238 14.2061 51.1421 12.1391C46.1585 10.0741 40.9444 9.04163 35.5 9.04163C30.0556 9.04163 24.8425 10.0741 19.8608 12.1391C14.8772 14.2061 10.4653 17.1597 6.625 21ZM55.9167 26.5416L56.7917 30.9166C57.375 31.1597 57.9224 31.4144 58.4338 31.6808C58.9432 31.9491 59.4653 32.2777 60 32.6666L64.2292 31.3541L67.1458 36.3125L63.7917 39.2291C63.8889 39.8125 63.9375 40.4444 63.9375 41.125C63.9375 41.8055 63.8889 42.4375 63.7917 43.0208L67.1458 45.9375L64.2292 50.8958L60 49.5833C59.4653 49.9722 58.9432 50.3008 58.4338 50.5691C57.9224 50.8355 57.375 51.0902 56.7917 51.3333L55.9167 55.7083H50.0833L49.2083 51.3333C48.625 51.0902 48.0786 50.8355 47.5692 50.5691C47.0578 50.3008 46.5347 49.9722 46 49.5833L41.7708 50.8958L38.8542 45.9375L42.2083 43.0208C42.1111 42.4375 42.0625 41.8055 42.0625 41.125C42.0625 40.4444 42.1111 39.8125 42.2083 39.2291L38.8542 36.3125L41.7708 31.3541L46 32.6666C46.5347 32.2777 47.0578 31.9491 47.5692 31.6808C48.0786 31.4144 48.625 31.1597 49.2083 30.9166L50.0833 26.5416H55.9167ZM53 35.2916C51.3958 35.2916 50.0221 35.8623 48.8787 37.0037C47.7374 38.147 47.1667 39.5208 47.1667 41.125C47.1667 42.7291 47.7374 44.1029 48.8787 45.2462C50.0221 46.3876 51.3958 46.9583 53 46.9583C54.6042 46.9583 55.9779 46.3876 57.1213 45.2462C58.2626 44.1029 58.8333 42.7291 58.8333 41.125C58.8333 39.5208 58.2626 38.147 57.1213 37.0037C55.9779 35.8623 54.6042 35.2916 53 35.2916Z" fill="black"/>
</svg>
