<svg width="88" height="88" viewBox="0 0 88 88" fill="none" xmlns="http://www.w3.org/2000/svg">
<path d="M0 70.3751L7.34024 63.0763L13.229 68.8822L17.6249 64.5278L11.7361 58.6805L17.6249 52.7917L27.868 63.0763L32.2639 58.6805L22.0207 48.3959L27.868 42.5485L33.7568 48.3959L38.1527 44L32.2639 38.1527L38.1527 32.2639L48.3959 42.5485L52.7917 38.1527L42.5485 27.868L48.3959 22.0207L54.2432 27.868L58.6805 23.4722L52.7917 17.6249L58.6805 11.7361L68.8822 22.0207L73.3195 17.6249L63.0763 7.34024L70.3751 0L88 17.6249L17.6249 88L0 70.3751Z" fill="black"/>
</svg>
