<svg width="88" height="88" viewBox="0 0 88 88" fill="none" xmlns="http://www.w3.org/2000/svg">
<path d="M16.4258 4.4C16.4258 5.64667 15.9862 6.69093 15.1069 7.5328C14.2245 8.3776 13.1323 8.8 11.8302 8.8H7.23451C5.9324 8.8 4.84169 8.3776 3.96239 7.5328C3.08002 6.69093 2.63884 5.64667 2.63884 4.4C2.63884 3.15333 3.08002 2.1076 3.96239 1.2628C4.84169 0.420933 5.9324 0 7.23451 0H11.8302C13.1323 0 14.2245 0.420933 15.1069 1.2628C15.9862 2.1076 16.4258 3.15333 16.4258 4.4ZM9.30256 88H39.4042V70.4H1.7197L0.226109 77.44C-0.386647 80.2267 0.246024 82.6833 2.12412 84.81C3.99915 86.9367 6.39197 88 9.30256 88ZM23.4342 19.8C24.3534 20.68 24.8129 21.7257 24.8129 22.9372C24.8129 24.1457 24.3534 25.19 23.4342 26.07L20.2173 29.15C19.3747 29.9567 18.3223 30.36 17.06 30.36C15.7947 30.36 14.7025 29.9567 13.7833 29.15C12.8642 28.27 12.4046 27.2243 12.4046 26.0128C12.4046 24.8043 12.8642 23.76 13.7833 22.88L17.0003 19.8C17.8428 18.9933 18.8952 18.59 20.1575 18.59C21.4229 18.59 22.5151 18.9933 23.4342 19.8ZM3.55797 61.6H39.4042V44H14.8174C12.5961 44 10.6246 44.66 8.90273 45.98C7.17782 47.3 6.12389 48.9867 5.74091 51.04L3.55797 61.6ZM43.9999 22C37.6425 22 32.2242 19.8543 27.745 15.5628C23.2627 11.2743 21.0215 6.08667 21.0215 0H66.9782C66.9782 6.08667 64.7386 11.2743 60.2593 15.5628C55.777 19.8543 50.3572 22 43.9999 22ZM43.9999 26.4C45.302 26.4 46.3942 26.8209 47.2766 27.6628C48.1559 28.5076 48.5955 29.5533 48.5955 30.8V35.2C48.5955 36.4467 48.1559 37.4909 47.2766 38.3328C46.3942 39.1776 45.302 39.6 43.9999 39.6C42.6978 39.6 41.607 39.1776 40.7277 38.3328C39.8454 37.4909 39.4042 36.4467 39.4042 35.2V30.8C39.4042 29.5533 39.8454 28.5076 40.7277 27.6628C41.607 26.8209 42.6978 26.4 43.9999 26.4ZM48.5955 88H78.6972C81.6077 88 84.0021 86.9367 85.8802 84.81C87.7552 82.6833 88.3864 80.2267 87.7736 77.44L86.28 70.4H48.5955V88ZM48.5955 61.6H84.4417L82.2588 51.04C81.8758 48.9867 80.8234 47.3 79.1016 45.98C77.3767 44.66 75.4036 44 73.1824 44H48.5955V61.6ZM64.5655 19.8C65.408 18.9933 66.4803 18.59 67.7824 18.59C69.0845 18.59 70.1569 18.9933 70.9994 19.8L74.2164 22.88C75.1355 23.76 75.615 24.7867 75.6548 25.96C75.6916 27.1333 75.2504 28.16 74.3313 29.04C73.4121 29.92 72.3214 30.36 71.0592 30.36C69.7938 30.36 68.7016 29.92 67.7824 29.04L64.5655 25.96C63.7229 25.08 63.2833 24.0533 63.2465 22.88C63.2067 21.7067 63.6463 20.68 64.5655 19.8ZM85.3609 4.4C85.3609 5.64667 84.9197 6.69093 84.0373 7.5328C83.158 8.3776 82.0673 8.8 80.7652 8.8H76.1695C74.8674 8.8 73.7767 8.3776 72.8974 7.5328C72.0151 6.69093 71.5739 5.64667 71.5739 4.4C71.5739 3.15333 72.0151 2.1076 72.8974 1.2628C73.7767 0.420933 74.8674 0 76.1695 0H80.7652C82.0673 0 83.158 0.420933 84.0373 1.2628C84.9197 2.1076 85.3609 3.15333 85.3609 4.4Z" fill="black"/>
</svg>
