<svg width="66" height="59" viewBox="0 0 66 59" fill="none" xmlns="http://www.w3.org/2000/svg">
<mask id="mask0_609_14026" style="mask-type:luminance" maskUnits="userSpaceOnUse" x="0" y="0" width="66" height="59">
<path d="M29.2506 45.6044C31.4167 38.4858 38.9905 33.4011 47.7145 34.2417C56.0202 35.0417 62.623 41.4011 63.0413 48.9672C63.1459 50.9604 62.8471 52.8722 62.2048 54.6485C61.8163 55.7333 60.6512 56.4519 59.3814 56.4519H14.8918C7.35089 56.4519 1.69521 50.1889 3.17411 43.477L12.2656 2.2146H30.1917L36.1671 11.7061L23.3649 20.018L19.7348 15.7739" fill="white"/>
<path d="M29.2506 45.6044C31.4167 38.4858 38.9905 33.4011 47.7145 34.2417C56.0202 35.0417 62.623 41.4011 63.0413 48.9672C63.1459 50.9604 62.8471 52.8722 62.2047 54.6485C61.8164 55.7333 60.6512 56.4519 59.3814 56.4519H14.8918C7.35089 56.4519 1.69521 50.1889 3.17411 43.477L12.2656 2.2146H30.1917L36.1671 11.7061L23.3649 20.018L19.7348 15.7739M23.3798 20.018L30.1917 42.8926" stroke="white" stroke-width="4" stroke-miterlimit="2" stroke-linecap="round" stroke-linejoin="round"/>
</mask>
<g mask="url(#mask0_609_14026)">
<path d="M-2.67261 -3.20923H69.0318V61.8755H-2.67261V-3.20923Z" fill="black"/>
</g>
</svg>
