<svg width="55" height="63" viewBox="0 0 55 63" fill="none" xmlns="http://www.w3.org/2000/svg">
<path d="M21.5 6C20.65 6 19.938 5.712 19.364 5.136C18.788 4.562 18.5 3.85 18.5 3C18.5 2.15 18.788 1.437 19.364 0.861C19.938 0.287 20.65 0 21.5 0H33.5C34.35 0 35.063 0.287 35.639 0.861C36.213 1.437 36.5 2.15 36.5 3C36.5 3.85 36.213 4.562 35.639 5.136C35.063 5.712 34.35 6 33.5 6H21.5ZM27.5 39C28.35 39 29.063 38.712 29.639 38.136C30.213 37.562 30.5 36.85 30.5 36V24C30.5 23.15 30.213 22.437 29.639 21.861C29.063 21.287 28.35 21 27.5 21C26.65 21 25.938 21.287 25.364 21.861C24.788 22.437 24.5 23.15 24.5 24V36C24.5 36.85 24.788 37.562 25.364 38.136C25.938 38.712 26.65 39 27.5 39ZM27.5 63C23.8 63 20.312 62.288 17.036 60.864C13.762 59.438 10.9 57.5 8.45 55.05C6 52.6 4.062 49.738 2.636 46.464C1.212 43.188 0.5 39.7 0.5 36C0.5 32.3 1.212 28.812 2.636 25.536C4.062 22.262 6 19.4 8.45 16.95C10.9 14.5 13.762 12.563 17.036 11.139C20.312 9.713 23.8 9 27.5 9C30.6 9 33.575 9.5 36.425 10.5C39.275 11.5 41.95 12.95 44.45 14.85L46.625 12.675C47.175 12.125 47.85 11.85 48.65 11.85C49.45 11.85 50.15 12.15 50.75 12.75C51.3 13.3 51.575 14 51.575 14.85C51.575 15.7 51.3 16.4 50.75 16.95L48.65 19.05C50.55 21.55 52 24.225 53 27.075C54 29.925 54.5 32.9 54.5 36C54.5 39.7 53.788 43.188 52.364 46.464C50.938 49.738 49 52.6 46.55 55.05C44.1 57.5 41.238 59.438 37.964 60.864C34.688 62.288 31.2 63 27.5 63Z" fill="black"/>
</svg>
