<svg width="38" height="35" viewBox="0 0 38 35" fill="none" xmlns="http://www.w3.org/2000/svg">
<path d="M15.9447 31.2516C15.9447 31.8823 15.7577 32.4988 15.4073 33.0233C15.0568 33.5477 14.5588 33.9564 13.9761 34.1978C13.3934 34.4391 12.7522 34.5023 12.1336 34.3792C11.515 34.2562 10.9468 33.9525 10.5008 33.5065C10.0548 33.0605 9.75113 32.4923 9.62809 31.8737C9.50504 31.2551 9.56819 30.6139 9.80956 30.0312C10.0509 29.4485 10.4597 28.9505 10.9841 28.6001C11.5085 28.2497 12.125 28.0626 12.7557 28.0626C13.6015 28.0626 14.4126 28.3986 15.0107 28.9967C15.6087 29.5947 15.9447 30.4058 15.9447 31.2516ZM29.3382 28.0626C28.7075 28.0626 28.091 28.2497 27.5665 28.6001C27.0421 28.9505 26.6334 29.4485 26.392 30.0312C26.1507 30.6139 26.0875 31.2551 26.2106 31.8737C26.3336 32.4923 26.6373 33.0605 27.0833 33.5065C27.5293 33.9525 28.0975 34.2562 28.7161 34.3792C29.3347 34.5023 29.9759 34.4391 30.5586 34.1978C31.1413 33.9564 31.6393 33.5477 31.9897 33.0233C32.3401 32.4988 32.5272 31.8823 32.5272 31.2516C32.5272 30.4058 32.1912 29.5947 31.5931 28.9967C30.9951 28.3986 30.184 28.0626 29.3382 28.0626ZM37.545 8.85408L33.1936 22.997C32.9158 23.9116 32.3505 24.7123 31.5816 25.2802C30.8127 25.848 29.8811 26.1528 28.9253 26.1493H13.2229C12.2533 26.1461 11.3109 25.8289 10.5368 25.2451C9.76265 24.6612 9.19856 23.8423 8.92902 22.9109L3.47754 3.82672H1.91336C1.40591 3.82672 0.919236 3.62514 0.560411 3.26631C0.201586 2.90749 0 2.42082 0 1.91336C0 1.40591 0.201586 0.919236 0.560411 0.560411C0.919236 0.201586 1.40591 0 1.91336 0H3.95747C4.65002 0.00213952 5.3232 0.228778 5.87603 0.645916C6.42886 1.06305 6.83153 1.6482 7.02363 2.31357L8.186 6.37787H35.7161C36.0155 6.37785 36.3108 6.44811 36.5782 6.583C36.8455 6.71789 37.0774 6.91364 37.2553 7.15451C37.4332 7.39538 37.5521 7.67464 37.6024 7.96983C37.6527 8.26502 37.633 8.56789 37.545 8.85408ZM33.1251 10.2046H9.27821L12.6091 21.8602C12.6472 21.9935 12.7278 22.1108 12.8385 22.1942C12.9493 22.2776 13.0842 22.3227 13.2229 22.3226H28.9253C29.0618 22.3228 29.1948 22.2793 29.3047 22.1984C29.4146 22.1174 29.4957 22.0034 29.5359 21.8729L33.1251 10.2046Z" fill="black"/>
</svg>
