<svg width="1440" height="545" viewBox="0 0 1440 545" fill="none" xmlns="http://www.w3.org/2000/svg">
<g opacity="0.8">
<path d="M0 0H938V1.19137H0V0Z" fill="url(#paint0_linear_420_10881)"/>
<path d="M0 95.31H938V96.5013H0V95.31Z" fill="url(#paint1_linear_420_10881)"/>
<path d="M0 190.62H938V191.811H0V190.62Z" fill="url(#paint2_linear_420_10881)"/>
<path d="M0 285.93H938V287.121H0V285.93Z" fill="url(#paint3_linear_420_10881)"/>
<path d="M0 381.24H938V382.431H0V381.24Z" fill="url(#paint4_linear_420_10881)"/>
<path d="M0 476.55H938V477.741H0V476.55Z" fill="url(#paint5_linear_420_10881)"/>
<path d="M0 571.86H938V573.051H0V571.86Z" fill="url(#paint6_linear_420_10881)"/>
<path d="M0 667.17H938V668.361H0V667.17Z" fill="url(#paint7_linear_420_10881)"/>
<path d="M0 762.48H938V763.671H0V762.48Z" fill="url(#paint8_linear_420_10881)"/>
<path d="M0 857.79H938V858.981H0V857.79Z" fill="url(#paint9_linear_420_10881)"/>
<path d="M0 0H1.06109V884H0V0Z" fill="url(#paint10_linear_420_10881)"/>
<path d="M84.8869 0H85.948V884H84.8869V0Z" fill="url(#paint11_linear_420_10881)"/>
<path d="M169.774 0H170.835V884H169.774V0Z" fill="url(#paint12_linear_420_10881)"/>
<path d="M254.661 0H255.722V884H254.661V0Z" fill="url(#paint13_linear_420_10881)"/>
<path d="M339.548 0H340.609V884H339.548V0Z" fill="url(#paint14_linear_420_10881)"/>
<path d="M424.434 0H425.495V884H424.434V0Z" fill="url(#paint15_linear_420_10881)"/>
<path d="M509.321 0H510.382V884H509.321V0Z" fill="url(#paint16_linear_420_10881)"/>
<path d="M594.208 0H595.269V884H594.208V0Z" fill="url(#paint17_linear_420_10881)"/>
<path d="M679.095 0H680.156V884H679.095V0Z" fill="url(#paint18_linear_420_10881)"/>
<path d="M763.982 0H765.043V884H763.982V0Z" fill="url(#paint19_linear_420_10881)"/>
<path d="M848.869 0H849.93V884H848.869V0Z" fill="url(#paint20_linear_420_10881)"/>
<path d="M933.756 0H934.817V884H933.756V0Z" fill="url(#paint21_linear_420_10881)"/>
</g>
<g opacity="0.8">
<path d="M679 0H1617V1.19137H679V0Z" fill="url(#paint22_linear_420_10881)"/>
<path d="M679 95.31H1617V96.5013H679V95.31Z" fill="url(#paint23_linear_420_10881)"/>
<path d="M679 190.62H1617V191.811H679V190.62Z" fill="url(#paint24_linear_420_10881)"/>
<path d="M679 285.93H1617V287.121H679V285.93Z" fill="url(#paint25_linear_420_10881)"/>
<path d="M679 381.24H1617V382.431H679V381.24Z" fill="url(#paint26_linear_420_10881)"/>
<path d="M679 476.55H1617V477.741H679V476.55Z" fill="url(#paint27_linear_420_10881)"/>
<path d="M679 571.86H1617V573.051H679V571.86Z" fill="url(#paint28_linear_420_10881)"/>
<path d="M679 667.17H1617V668.361H679V667.17Z" fill="url(#paint29_linear_420_10881)"/>
<path d="M679 762.48H1617V763.671H679V762.48Z" fill="url(#paint30_linear_420_10881)"/>
<path d="M679 857.79H1617V858.981H679V857.79Z" fill="url(#paint31_linear_420_10881)"/>
<path d="M679 0H680.061V884H679V0Z" fill="url(#paint32_linear_420_10881)"/>
<path d="M763.887 0H764.948V884H763.887V0Z" fill="url(#paint33_linear_420_10881)"/>
<path d="M848.774 0H849.835V884H848.774V0Z" fill="url(#paint34_linear_420_10881)"/>
<path d="M933.661 0H934.722V884H933.661V0Z" fill="url(#paint35_linear_420_10881)"/>
<path d="M1018.55 0H1019.61V884H1018.55V0Z" fill="url(#paint36_linear_420_10881)"/>
<path d="M1103.43 0H1104.5V884H1103.43V0Z" fill="url(#paint37_linear_420_10881)"/>
<path d="M1188.32 0H1189.38V884H1188.32V0Z" fill="url(#paint38_linear_420_10881)"/>
<path d="M1273.21 0H1274.27V884H1273.21V0Z" fill="url(#paint39_linear_420_10881)"/>
<path d="M1358.1 0H1359.16V884H1358.1V0Z" fill="url(#paint40_linear_420_10881)"/>
<path d="M1442.98 0H1444.04V884H1442.98V0Z" fill="url(#paint41_linear_420_10881)"/>
<path d="M1527.87 0H1528.93V884H1527.87V0Z" fill="url(#paint42_linear_420_10881)"/>
<path d="M1612.76 0H1613.82V884H1612.76V0Z" fill="url(#paint43_linear_420_10881)"/>
</g>
<defs>
<linearGradient id="paint0_linear_420_10881" x1="469" y1="0" x2="468.138" y2="479.499" gradientUnits="userSpaceOnUse">
<stop stop-color="#9C9C9C" stop-opacity="0"/>
<stop offset="1" stop-color="white"/>
</linearGradient>
<linearGradient id="paint1_linear_420_10881" x1="469" y1="0" x2="468.138" y2="479.499" gradientUnits="userSpaceOnUse">
<stop stop-color="#9C9C9C" stop-opacity="0"/>
<stop offset="1" stop-color="white"/>
</linearGradient>
<linearGradient id="paint2_linear_420_10881" x1="469" y1="0" x2="468.138" y2="479.499" gradientUnits="userSpaceOnUse">
<stop stop-color="#9C9C9C" stop-opacity="0"/>
<stop offset="1" stop-color="white"/>
</linearGradient>
<linearGradient id="paint3_linear_420_10881" x1="469" y1="0" x2="468.138" y2="479.499" gradientUnits="userSpaceOnUse">
<stop stop-color="#9C9C9C" stop-opacity="0"/>
<stop offset="1" stop-color="white"/>
</linearGradient>
<linearGradient id="paint4_linear_420_10881" x1="469" y1="0" x2="468.138" y2="479.499" gradientUnits="userSpaceOnUse">
<stop stop-color="#9C9C9C" stop-opacity="0"/>
<stop offset="1" stop-color="white"/>
</linearGradient>
<linearGradient id="paint5_linear_420_10881" x1="469" y1="0" x2="468.138" y2="479.499" gradientUnits="userSpaceOnUse">
<stop stop-color="#9C9C9C" stop-opacity="0"/>
<stop offset="1" stop-color="white"/>
</linearGradient>
<linearGradient id="paint6_linear_420_10881" x1="469" y1="0" x2="468.138" y2="479.499" gradientUnits="userSpaceOnUse">
<stop stop-color="#9C9C9C" stop-opacity="0"/>
<stop offset="1" stop-color="white"/>
</linearGradient>
<linearGradient id="paint7_linear_420_10881" x1="469" y1="0" x2="468.138" y2="479.499" gradientUnits="userSpaceOnUse">
<stop stop-color="#9C9C9C" stop-opacity="0"/>
<stop offset="1" stop-color="white"/>
</linearGradient>
<linearGradient id="paint8_linear_420_10881" x1="469" y1="0" x2="468.138" y2="479.499" gradientUnits="userSpaceOnUse">
<stop stop-color="#9C9C9C" stop-opacity="0"/>
<stop offset="1" stop-color="white"/>
</linearGradient>
<linearGradient id="paint9_linear_420_10881" x1="469" y1="0" x2="468.138" y2="479.499" gradientUnits="userSpaceOnUse">
<stop stop-color="#9C9C9C" stop-opacity="0"/>
<stop offset="1" stop-color="white"/>
</linearGradient>
<linearGradient id="paint10_linear_420_10881" x1="469" y1="0" x2="468.138" y2="479.499" gradientUnits="userSpaceOnUse">
<stop stop-color="#9C9C9C" stop-opacity="0"/>
<stop offset="1" stop-color="white"/>
</linearGradient>
<linearGradient id="paint11_linear_420_10881" x1="469" y1="0" x2="468.138" y2="479.499" gradientUnits="userSpaceOnUse">
<stop stop-color="#9C9C9C" stop-opacity="0"/>
<stop offset="1" stop-color="white"/>
</linearGradient>
<linearGradient id="paint12_linear_420_10881" x1="469" y1="0" x2="468.138" y2="479.499" gradientUnits="userSpaceOnUse">
<stop stop-color="#9C9C9C" stop-opacity="0"/>
<stop offset="1" stop-color="white"/>
</linearGradient>
<linearGradient id="paint13_linear_420_10881" x1="469" y1="0" x2="468.138" y2="479.499" gradientUnits="userSpaceOnUse">
<stop stop-color="#9C9C9C" stop-opacity="0"/>
<stop offset="1" stop-color="white"/>
</linearGradient>
<linearGradient id="paint14_linear_420_10881" x1="469" y1="0" x2="468.138" y2="479.499" gradientUnits="userSpaceOnUse">
<stop stop-color="#9C9C9C" stop-opacity="0"/>
<stop offset="1" stop-color="white"/>
</linearGradient>
<linearGradient id="paint15_linear_420_10881" x1="469" y1="0" x2="468.138" y2="479.499" gradientUnits="userSpaceOnUse">
<stop stop-color="#9C9C9C" stop-opacity="0"/>
<stop offset="1" stop-color="white"/>
</linearGradient>
<linearGradient id="paint16_linear_420_10881" x1="469" y1="0" x2="468.138" y2="479.499" gradientUnits="userSpaceOnUse">
<stop stop-color="#9C9C9C" stop-opacity="0"/>
<stop offset="1" stop-color="white"/>
</linearGradient>
<linearGradient id="paint17_linear_420_10881" x1="469" y1="0" x2="468.138" y2="479.499" gradientUnits="userSpaceOnUse">
<stop stop-color="#9C9C9C" stop-opacity="0"/>
<stop offset="1" stop-color="white"/>
</linearGradient>
<linearGradient id="paint18_linear_420_10881" x1="469" y1="0" x2="468.138" y2="479.499" gradientUnits="userSpaceOnUse">
<stop stop-color="#9C9C9C" stop-opacity="0"/>
<stop offset="1" stop-color="white"/>
</linearGradient>
<linearGradient id="paint19_linear_420_10881" x1="469" y1="0" x2="468.138" y2="479.499" gradientUnits="userSpaceOnUse">
<stop stop-color="#9C9C9C" stop-opacity="0"/>
<stop offset="1" stop-color="white"/>
</linearGradient>
<linearGradient id="paint20_linear_420_10881" x1="469" y1="0" x2="468.138" y2="479.499" gradientUnits="userSpaceOnUse">
<stop stop-color="#9C9C9C" stop-opacity="0"/>
<stop offset="1" stop-color="white"/>
</linearGradient>
<linearGradient id="paint21_linear_420_10881" x1="469" y1="0" x2="468.138" y2="479.499" gradientUnits="userSpaceOnUse">
<stop stop-color="#9C9C9C" stop-opacity="0"/>
<stop offset="1" stop-color="white"/>
</linearGradient>
<linearGradient id="paint22_linear_420_10881" x1="1148" y1="0" x2="1147.14" y2="479.499" gradientUnits="userSpaceOnUse">
<stop stop-color="#9C9C9C" stop-opacity="0"/>
<stop offset="1" stop-color="white"/>
</linearGradient>
<linearGradient id="paint23_linear_420_10881" x1="1148" y1="0" x2="1147.14" y2="479.499" gradientUnits="userSpaceOnUse">
<stop stop-color="#9C9C9C" stop-opacity="0"/>
<stop offset="1" stop-color="white"/>
</linearGradient>
<linearGradient id="paint24_linear_420_10881" x1="1148" y1="0" x2="1147.14" y2="479.499" gradientUnits="userSpaceOnUse">
<stop stop-color="#9C9C9C" stop-opacity="0"/>
<stop offset="1" stop-color="white"/>
</linearGradient>
<linearGradient id="paint25_linear_420_10881" x1="1148" y1="0" x2="1147.14" y2="479.499" gradientUnits="userSpaceOnUse">
<stop stop-color="#9C9C9C" stop-opacity="0"/>
<stop offset="1" stop-color="white"/>
</linearGradient>
<linearGradient id="paint26_linear_420_10881" x1="1148" y1="0" x2="1147.14" y2="479.499" gradientUnits="userSpaceOnUse">
<stop stop-color="#9C9C9C" stop-opacity="0"/>
<stop offset="1" stop-color="white"/>
</linearGradient>
<linearGradient id="paint27_linear_420_10881" x1="1148" y1="0" x2="1147.14" y2="479.499" gradientUnits="userSpaceOnUse">
<stop stop-color="#9C9C9C" stop-opacity="0"/>
<stop offset="1" stop-color="white"/>
</linearGradient>
<linearGradient id="paint28_linear_420_10881" x1="1148" y1="0" x2="1147.14" y2="479.499" gradientUnits="userSpaceOnUse">
<stop stop-color="#9C9C9C" stop-opacity="0"/>
<stop offset="1" stop-color="white"/>
</linearGradient>
<linearGradient id="paint29_linear_420_10881" x1="1148" y1="0" x2="1147.14" y2="479.499" gradientUnits="userSpaceOnUse">
<stop stop-color="#9C9C9C" stop-opacity="0"/>
<stop offset="1" stop-color="white"/>
</linearGradient>
<linearGradient id="paint30_linear_420_10881" x1="1148" y1="0" x2="1147.14" y2="479.499" gradientUnits="userSpaceOnUse">
<stop stop-color="#9C9C9C" stop-opacity="0"/>
<stop offset="1" stop-color="white"/>
</linearGradient>
<linearGradient id="paint31_linear_420_10881" x1="1148" y1="0" x2="1147.14" y2="479.499" gradientUnits="userSpaceOnUse">
<stop stop-color="#9C9C9C" stop-opacity="0"/>
<stop offset="1" stop-color="white"/>
</linearGradient>
<linearGradient id="paint32_linear_420_10881" x1="1148" y1="0" x2="1147.14" y2="479.499" gradientUnits="userSpaceOnUse">
<stop stop-color="#9C9C9C" stop-opacity="0"/>
<stop offset="1" stop-color="white"/>
</linearGradient>
<linearGradient id="paint33_linear_420_10881" x1="1148" y1="0" x2="1147.14" y2="479.499" gradientUnits="userSpaceOnUse">
<stop stop-color="#9C9C9C" stop-opacity="0"/>
<stop offset="1" stop-color="white"/>
</linearGradient>
<linearGradient id="paint34_linear_420_10881" x1="1148" y1="0" x2="1147.14" y2="479.499" gradientUnits="userSpaceOnUse">
<stop stop-color="#9C9C9C" stop-opacity="0"/>
<stop offset="1" stop-color="white"/>
</linearGradient>
<linearGradient id="paint35_linear_420_10881" x1="1148" y1="0" x2="1147.14" y2="479.499" gradientUnits="userSpaceOnUse">
<stop stop-color="#9C9C9C" stop-opacity="0"/>
<stop offset="1" stop-color="white"/>
</linearGradient>
<linearGradient id="paint36_linear_420_10881" x1="1148" y1="0" x2="1147.14" y2="479.499" gradientUnits="userSpaceOnUse">
<stop stop-color="#9C9C9C" stop-opacity="0"/>
<stop offset="1" stop-color="white"/>
</linearGradient>
<linearGradient id="paint37_linear_420_10881" x1="1148" y1="0" x2="1147.14" y2="479.499" gradientUnits="userSpaceOnUse">
<stop stop-color="#9C9C9C" stop-opacity="0"/>
<stop offset="1" stop-color="white"/>
</linearGradient>
<linearGradient id="paint38_linear_420_10881" x1="1148" y1="0" x2="1147.14" y2="479.499" gradientUnits="userSpaceOnUse">
<stop stop-color="#9C9C9C" stop-opacity="0"/>
<stop offset="1" stop-color="white"/>
</linearGradient>
<linearGradient id="paint39_linear_420_10881" x1="1148" y1="0" x2="1147.14" y2="479.499" gradientUnits="userSpaceOnUse">
<stop stop-color="#9C9C9C" stop-opacity="0"/>
<stop offset="1" stop-color="white"/>
</linearGradient>
<linearGradient id="paint40_linear_420_10881" x1="1148" y1="0" x2="1147.14" y2="479.499" gradientUnits="userSpaceOnUse">
<stop stop-color="#9C9C9C" stop-opacity="0"/>
<stop offset="1" stop-color="white"/>
</linearGradient>
<linearGradient id="paint41_linear_420_10881" x1="1148" y1="0" x2="1147.14" y2="479.499" gradientUnits="userSpaceOnUse">
<stop stop-color="#9C9C9C" stop-opacity="0"/>
<stop offset="1" stop-color="white"/>
</linearGradient>
<linearGradient id="paint42_linear_420_10881" x1="1148" y1="0" x2="1147.14" y2="479.499" gradientUnits="userSpaceOnUse">
<stop stop-color="#9C9C9C" stop-opacity="0"/>
<stop offset="1" stop-color="white"/>
</linearGradient>
<linearGradient id="paint43_linear_420_10881" x1="1148" y1="0" x2="1147.14" y2="479.499" gradientUnits="userSpaceOnUse">
<stop stop-color="#9C9C9C" stop-opacity="0"/>
<stop offset="1" stop-color="white"/>
</linearGradient>
</defs>
</svg>
