<svg width="938" height="726" viewBox="0 0 938 726" fill="none" xmlns="http://www.w3.org/2000/svg">
<g opacity="0.8">
<path d="M0 0H938V1.19137H0V0Z" fill="white" fill-opacity="0.65"/>
<path d="M0 95.31H938V96.5014H0V95.31Z" fill="white" fill-opacity="0.65"/>
<path d="M0 190.62H938V191.811H0V190.62Z" fill="white" fill-opacity="0.65"/>
<path d="M0 285.93H938V287.121H0V285.93Z" fill="white" fill-opacity="0.65"/>
<path d="M0 381.24H938V382.431H0V381.24Z" fill="white" fill-opacity="0.65"/>
<path d="M0 476.55H938V477.741H0V476.55Z" fill="white" fill-opacity="0.65"/>
<path d="M0 571.86H938V573.051H0V571.86Z" fill="white" fill-opacity="0.65"/>
<path d="M0 667.17H938V668.361H0V667.17Z" fill="white" fill-opacity="0.65"/>
<path d="M0 762.48H938V763.671H0V762.48Z" fill="white" fill-opacity="0.65"/>
<path d="M0 857.79H938V858.981H0V857.79Z" fill="white" fill-opacity="0.65"/>
<path d="M0 0H1.06109V884H0V0Z" fill="white" fill-opacity="0.65"/>
<path d="M84.8869 0H85.948V884H84.8869V0Z" fill="white" fill-opacity="0.65"/>
<path d="M169.774 0H170.835V884H169.774V0Z" fill="white" fill-opacity="0.65"/>
<path d="M254.661 0H255.722V884H254.661V0Z" fill="white" fill-opacity="0.65"/>
<path d="M339.547 0H340.609V884H339.547V0Z" fill="white" fill-opacity="0.65"/>
<path d="M424.434 0H425.495V884H424.434V0Z" fill="white" fill-opacity="0.65"/>
<path d="M509.321 0H510.382V884H509.321V0Z" fill="white" fill-opacity="0.65"/>
<path d="M594.208 0H595.269V884H594.208V0Z" fill="white" fill-opacity="0.65"/>
<path d="M679.095 0H680.156V884H679.095V0Z" fill="white" fill-opacity="0.65"/>
<path d="M763.982 0H765.043V884H763.982V0Z" fill="white" fill-opacity="0.65"/>
<path d="M848.869 0H849.93V884H848.869V0Z" fill="white" fill-opacity="0.65"/>
<path d="M933.756 0H934.817V884H933.756V0Z" fill="white" fill-opacity="0.65"/>
</g>
</svg>
