<svg width="100" height="26" viewBox="0 0 100 26" fill="none" xmlns="http://www.w3.org/2000/svg">
<path d="M99.7355 15.7853C99.7722 18.5575 99.6915 21.3298 99.7098 24.102C99.7098 24.8791 99.5997 25.5292 98.954 26H94.9179C91.8771 25.5375 88.7857 25.5375 85.7449 26H82.0757C81.3419 23.635 81.9509 21.143 81.518 18.5277C79.8815 19.7494 78.113 20.3023 76.3481 20.8628C75.3281 20.945 75.1042 19.3683 73.9778 19.6859L73.2623 18.9648C73.299 18.4081 73.3137 17.8701 72.5578 17.8103C72.1909 17.362 72.1909 16.8127 72.1395 16.2822C72.0074 14.9745 71.4057 14.7877 70.3894 15.4939C70.2536 14.7466 69.4427 14.261 69.6298 13.3979C72.7266 11.8549 74.9171 12.6507 76.2784 15.7965C76.5903 16.5139 76.6967 17.3956 77.8415 17.1752C79.2027 16.9099 80.6961 16.8912 81.5584 15.5835C81.8556 15.1277 81.6244 14.6047 80.8869 14.373C79.3605 13.8948 79.5183 12.9794 80.5603 12.094C83.6901 9.43753 86.8603 6.82969 89.9791 4.16206C90.6249 3.61284 91.0065 3.84449 91.5239 4.3003C93.1273 5.72004 94.7638 7.10242 96.3892 8.49975C95.127 9.16106 95.9783 10.5883 95.3398 11.4887C94.0923 10.4015 92.8374 9.32172 91.6046 8.22328C91.1092 7.78241 90.5405 7.42001 89.9791 7.8833C88.361 9.21711 86.7979 10.6144 85.2349 12.0192C84.8869 12.3739 84.6871 12.8518 84.6772 13.3531C84.5891 14.3319 84.5377 14.9223 85.9687 14.657C88.9995 14.0891 92.0632 13.5922 95.171 13.5922C95.9709 13.5922 96.4993 13.7864 96.536 14.6644C96.5727 15.5424 95.8352 15.5088 95.2591 15.591C94.2354 15.7367 93.2007 15.8339 92.177 15.9945C89.9755 16.3382 87.7446 16.7418 85.5211 17.0668C84.3506 17.2462 84.7028 18.1877 84.7652 18.8041C84.8459 19.6186 85.4991 19.1329 85.9137 19.0843C88.6546 18.7593 91.3954 18.4118 94.1363 18.083C96.7304 17.7729 97.2845 17.2686 97.3872 14.6084C97.4276 13.5287 97.7541 13.0018 98.8072 12.9159C99.0343 12.9168 99.2587 12.8663 99.4643 12.7681C99.6699 12.6699 99.8515 12.5264 99.996 12.348M84.9524 22.1032L84.9744 22.6711H89.9865C91.8688 22.6711 93.7547 22.6487 95.637 22.6711C96.9286 22.6935 96.6534 21.752 96.7047 20.9973C96.7451 20.3658 96.5323 20.123 95.8535 20.25C92.2393 20.8852 88.6069 21.4942 84.9707 22.1069L84.9524 22.1032Z" fill="#86C6B5"/>
<path d="M4.82865 18.3072C4.12775 19.9304 3.55238 21.6068 3.1078 23.3212C2.49872 25.4508 2.0364 25.6675 0 24.8867V14.8588C0.649446 14.2797 0.704484 13.0953 1.83459 13.0131C1.85605 13.4146 2.027 13.7927 2.31264 14.0703C2.59827 14.348 2.9771 14.5044 3.37198 14.5076C3.3516 15.2891 3.13701 16.0527 2.74823 16.7268C2.52808 17.0668 2.45102 17.5077 2.74823 17.687C3.28393 18.0121 3.33897 17.2873 3.65452 17.093C4.43972 17.1005 4.73692 17.6048 4.82865 18.3072Z" fill="#86C6B5"/>
<path d="M66.3244 0C68.0489 1.6215 68.214 3.71376 67.9499 5.88075C67.7645 6.93663 67.5194 7.98075 67.216 9.00792C66.3758 8.95935 65.8511 8.0552 64.9595 8.14487C65.0438 6.99786 65.1833 5.85084 65.198 4.7001C65.198 4.15088 65.5649 3.30278 64.831 3.09729C64.0972 2.8918 63.9431 3.90804 63.4734 4.31529C63.3047 4.46473 63.367 4.88691 63.323 5.1858C62.281 5.41371 61.8884 4.30406 61.0738 4.06495C61.5031 2.26038 62.7653 1.07601 64.1192 0.00372842L66.3244 0Z" fill="#86C6B5"/>
<path d="M4.82865 18.3072C4.73692 17.6048 4.43951 17.1005 3.65064 17.0781C3.93418 16.1953 4.39739 15.3832 5.01003 14.695C5.62267 14.0068 6.37098 13.4579 7.20608 13.0841C9.00031 12.2174 10.035 12.9646 9.92861 15.0045C9.88458 15.8564 9.71213 16.7045 9.53601 17.9935C10.4056 16.6821 10.9596 15.6658 11.6935 14.8103C12.276 14.1773 12.9565 13.646 13.7079 13.2373C14.4417 12.8114 15.2489 12.4901 16.1222 12.9758C17.0725 13.525 16.9441 14.4478 16.8303 15.2773C16.6868 16.5671 16.4351 17.842 16.0782 19.0882C15.6892 20.3099 15.6305 21.4196 16.6799 22.2266C17.2853 22.6936 18.9365 21.3112 19.2117 20.0633C19.5786 18.3783 19.8207 16.6671 20.1363 14.9746C20.2038 14.5536 20.3273 14.1438 20.5032 13.7567C20.6631 13.3459 20.9747 13.0154 21.3712 12.8359C21.7676 12.6564 22.2174 12.6422 22.624 12.7965C23.7247 13.1178 23.622 14.0892 23.3358 14.7654C22.6754 16.3384 22.7561 18.0122 22.4772 19.6224C22.3195 20.5565 21.8388 21.838 23.2111 22.3349C24.1394 22.6637 25.4126 21.1767 25.563 19.7569C25.6694 18.737 25.3355 17.6423 26.029 16.7157C27.1628 16.7157 27.438 18.2102 28.5717 18.2102C28.5717 19.0247 29.1185 19.0284 29.6908 19.0097L30.4247 20.8778C30.2082 21.3486 29.2982 21.0123 29.3643 21.6587C29.4303 22.305 30.0798 22.4582 30.5825 22.6002C31.9547 22.9738 33.1839 22.3573 34.4351 21.9277C34.5342 22.7608 35.0699 23.3138 35.6239 23.863C32.9894 25.7797 29.5954 25.8805 27.1848 23.9975C26.5097 23.4745 26.1684 23.4745 25.497 23.9751C23.0349 25.8133 22.3598 25.7722 19.8024 23.8107C19.3951 23.5006 19.2667 23.5716 18.9621 23.919C18.4003 24.4815 17.699 24.878 16.9331 25.0661C14.2729 25.9179 12.7209 24.8307 12.8346 22.0771C12.91 20.7287 13.057 19.3855 13.2749 18.0533C13.3373 17.6161 13.5721 17.164 13.0474 16.9324C12.387 16.6522 12.3136 17.306 12.0421 17.6796C11.1248 19.0022 10.6845 20.5453 10.002 21.9725C9.17643 21.9351 8.77648 21.3635 8.3692 20.7246C7.96192 20.0857 7.49227 19.3983 6.59332 19.346C6.59332 19.2264 6.57497 19.1031 6.55662 18.9724C6.45756 18.3559 7.00426 17.4555 6.27043 17.1865C5.53659 16.9175 5.335 17.9336 4.82865 18.3072Z" fill="#86C6B5"/>
<path d="M35.6278 23.8405C35.0738 23.2913 34.527 22.7383 34.439 21.9052C35.5397 21.2663 35.9067 20.336 35.9067 19.0209C35.9507 15.8077 38.2072 13.1812 41.0692 12.7366C42.3204 12.5461 43.3881 12.9047 44.1293 13.9546C44.9145 15.0755 44.8631 16.2822 44.2981 17.4703C43.9935 18.1279 43.4688 18.5912 42.702 18.4231C41.9351 18.2549 42.0269 17.5301 42.0489 16.9062C42.0709 16.2822 42.3571 15.535 41.5205 15.3631C40.7867 15.2174 40.2803 15.7368 39.9024 16.3532C39.4866 17.0039 39.2142 17.7387 39.104 18.5068C38.9937 19.275 39.0483 20.0584 39.264 20.803C39.6309 22.1667 40.7133 22.7047 42.0966 22.6151C43.8431 22.4992 45.5053 21.2289 45.641 19.7644C45.7768 18.2998 45.8722 16.8352 46.6684 15.5051C47.3002 14.4071 48.2852 13.5652 49.4567 13.1219C50.6282 12.6787 51.9142 12.6614 53.0968 13.0729C53.4637 14.4777 53.8893 15.8152 55.6285 15.9871C56.0358 16.4952 55.7423 17.5114 56.755 17.5862C57.0045 18.4044 57.2576 19.2226 57.5071 20.0408C56.3697 20.1417 55.7936 20.7656 55.3056 21.8566C53.7389 25.4882 50.2642 26.3213 47.1564 23.8854C46.973 23.6961 46.7294 23.5795 46.4693 23.5562C46.2092 23.5329 45.9494 23.6046 45.7364 23.7583C44.1917 24.5392 42.68 25.4919 40.8197 25.2976C39.5832 25.1669 38.3503 24.9502 37.4771 24.0236C36.8496 23.3212 36.3029 23.3735 35.6278 23.8405ZM49.1011 19.0171V19.6822C49.0827 20.803 49.3689 21.8043 50.51 22.2153C51.3172 22.5067 51.8786 21.9799 52.374 21.3821C53.1922 20.392 52.7409 19.6299 52.0731 18.7892C51.7062 18.3371 51.5998 17.6684 51.3833 17.1042C51.2255 16.6783 51.5741 15.9124 50.9577 15.8526C50.3412 15.7928 49.7835 16.3009 49.4643 16.9734C49.2124 17.6237 49.089 18.3182 49.1011 19.0171Z" fill="#86C6B5"/>
<path d="M57.5402 20.0408C57.2907 19.2226 57.0375 18.4044 56.788 17.5862C58.2557 17.5002 58.197 16.4653 58.296 15.3445C58.663 11.4402 59.228 7.57322 61.0956 4.04627C61.9102 4.28912 62.3028 5.39877 63.3485 5.16713C62.5156 8.5932 61.668 12.0193 61.591 15.931C63.3081 13.3344 64.064 10.7004 64.985 8.12617C65.8766 8.0365 66.4013 8.94065 67.2415 8.98922C66.3939 12.8599 64.1777 16.0506 62.211 19.3608C61.6974 20.2239 60.9709 21.0944 62.1633 21.8902C63.3558 22.686 64.4896 22.6375 65.4106 21.4494C66.0674 20.6125 66.2912 19.6186 66.4269 18.5426C66.6985 16.3532 67.3296 14.3021 69.6522 13.3942C69.465 14.2572 70.2759 14.7467 70.4117 15.4902C69.847 16.3222 69.4809 17.277 69.3426 18.2785C69.2044 19.28 69.2978 20.3006 69.6155 21.2588C69.854 22.0322 70.3493 22.6674 71.2629 22.7533C72.1766 22.8392 72.8847 22.3797 73.358 21.5914C73.7323 21.0397 73.9483 20.3929 73.9818 19.7233C75.1082 19.4169 75.3321 20.9823 76.3521 20.9001C75.2954 25.2416 71.4244 26.6389 67.8579 23.8891C67.2232 23.4034 66.8856 23.4931 66.2875 23.848C65.3666 24.4009 64.4016 24.995 63.3778 25.2229C61.1763 25.7161 59.4665 24.3262 58.685 21.6063C58.4905 20.9151 58.5969 20.0334 57.5402 20.0408Z" fill="#86C6B5"/>
<path d="M30.4286 20.8553L29.6947 18.9872C30.3353 18.7902 30.8914 18.378 31.2725 17.8178C31.6908 17.2051 32.1421 16.4242 31.4559 15.8339C30.7001 15.1875 29.9589 15.6919 29.4819 16.3981C29.1407 16.9732 28.8379 17.5711 28.5756 18.1877C27.4418 18.1877 27.1667 16.6932 26.0329 16.6932C26.2879 15.8346 26.7416 15.0509 27.3558 14.4079C27.97 13.7649 28.7268 13.2815 29.5626 12.9982C31.6394 12.2509 33.5584 12.8786 34.3509 14.4366C35.3379 16.3719 34.2298 18.4492 32.8429 19.6672C32.1736 20.3012 31.3323 20.7152 30.4286 20.8553Z" fill="#86C6B5"/>
<path d="M22.7159 10.9171C21.5198 10.8312 20.5144 10.4351 20.5548 9.00419C20.5951 7.46862 21.7216 6.8895 22.9985 6.82225C24.2019 6.75874 25.2 7.41631 25.1706 8.74639C25.1266 10.196 24.0955 10.8424 22.7159 10.9171Z" fill="#86C6B5"/>
<path d="M55.6432 15.9871C53.904 15.8152 53.4711 14.4926 53.1115 13.0729C53.7709 13.246 54.3643 13.616 54.8155 14.1353C55.2667 14.6546 55.5549 15.2996 55.6432 15.9871Z" fill="#86C6B5"/>
<path d="M3.37225 14.4926C2.97737 14.4894 2.59854 14.333 2.3129 14.0553C2.02727 13.7777 1.85632 13.3996 1.83486 12.9981C3.55204 12.5273 3.77953 12.7478 3.37225 14.4926Z" fill="#86C6B5"/>
<path d="M100 12.3518C99.8555 12.5302 99.6739 12.6736 99.4683 12.7718C99.2627 12.8701 99.0383 12.9205 98.8112 12.9197C98.8772 12.4564 98.6608 12.2883 98.2205 12.1986C97.2555 11.9969 96.3015 11.7316 95.3438 11.4925C95.9823 10.6033 95.131 9.17604 96.3932 8.50353C97.6884 9.6991 99.6734 10.2259 100 12.3518Z" fill="#86C6B5"/>
<path d="M73.2663 18.9798C73.0437 18.8884 72.8555 18.7273 72.7288 18.5198C72.6021 18.3122 72.5437 18.069 72.5618 17.8253C73.3177 17.8963 73.3177 18.4231 73.2663 18.9798Z" fill="#86C6B5"/>
<path d="M6.58271 19.3122C7.48166 19.3645 7.94031 20.037 8.35859 20.6909C8.77688 21.3447 9.16582 21.9014 9.99139 21.9388C9.83728 22.5963 9.70519 23.2651 9.52173 23.9152C9.28323 24.7596 8.80623 25.3461 7.84124 25.2938C6.87624 25.2415 6.44329 24.5242 6.32587 23.7097C6.07497 22.2434 6.1629 20.7378 6.58271 19.3122Z" fill="#86C6B5"/>
<path d="M91.5756 11.2646C91.5756 11.8474 91.3077 12.2173 90.7353 12.2584C90.6302 12.2724 90.5234 12.2648 90.4212 12.2358C90.3191 12.2069 90.2238 12.1573 90.1409 12.09C90.058 12.0227 89.9893 11.939 89.9389 11.8441C89.8884 11.7491 89.8573 11.6448 89.8474 11.5373C89.822 11.4177 89.8211 11.294 89.8449 11.174C89.8686 11.054 89.9164 10.9403 89.9853 10.84C90.0542 10.7397 90.1427 10.6549 90.2452 10.5911C90.3477 10.5272 90.4621 10.4856 90.5812 10.4688C91.1976 10.3343 91.4398 10.7639 91.5756 11.2646Z" fill="#86C6B5"/>
</svg>
